<svg width="822" height="233" viewBox="0 0 822 233" fill="none" xmlns="http://www.w3.org/2000/svg">
<path d="M410.328 220.416L409.488 220.959L410.019 221.781L410.852 221.267L410.328 220.416ZM403.544 209.92L402.941 209.122L402.2 209.683L402.704 210.463L403.544 209.92ZM412.888 202.56L412.256 201.785L412.25 201.79L412.888 202.56ZM420.12 195.456L419.35 194.818L420.12 195.456ZM425.112 187.008L426.039 187.384L426.04 187.379L425.112 187.008ZM427.864 175.616L428.856 175.741L428.856 175.739L427.864 175.616ZM437.336 98.944V97.944H436.452L436.344 98.8214L437.336 98.944ZM455.512 98.944L456.504 99.0666L456.643 97.944H455.512V98.944ZM446.04 175.616L445.048 175.493L445.047 175.495L446.04 175.616ZM442.2 190.848L441.283 190.45L441.279 190.457L442.2 190.848ZM435.096 201.984L434.36 201.307L434.356 201.312L435.096 201.984ZM424.472 211.136L423.904 210.313L423.894 210.32L424.472 211.136ZM411.168 219.873L404.384 209.377L402.704 210.463L409.488 220.959L411.168 219.873ZM404.147 210.718C407.655 208.065 410.782 205.603 413.526 203.33L412.25 201.79C409.533 204.04 406.43 206.484 402.941 209.122L404.147 210.718ZM413.52 203.335C416.338 201.037 418.796 198.624 420.89 196.094L419.35 194.818C417.348 197.238 414.985 199.56 412.256 201.785L413.52 203.335ZM420.89 196.094C423.007 193.535 424.723 190.63 426.039 187.384L424.185 186.632C422.941 189.701 421.329 192.427 419.35 194.818L420.89 196.094ZM426.04 187.379C427.36 184.082 428.294 180.198 428.856 175.741L426.872 175.491C426.325 179.824 425.424 183.534 424.184 186.637L426.04 187.379ZM428.856 175.739L438.328 99.0666L436.344 98.8214L426.872 175.493L428.856 175.739ZM437.336 99.944H455.512V97.944H437.336V99.944ZM454.52 98.8214L445.048 175.493L447.032 175.739L456.504 99.0666L454.52 98.8214ZM445.047 175.495C444.33 181.357 443.07 186.336 441.283 190.45L443.117 191.246C445 186.912 446.299 181.737 447.033 175.737L445.047 175.495ZM441.279 190.457C439.53 194.582 437.222 198.196 434.36 201.307L435.832 202.661C438.858 199.372 441.286 195.562 443.121 191.239L441.279 190.457ZM434.356 201.312C431.47 204.49 427.989 207.492 423.904 210.313L425.04 211.959C429.233 209.063 432.834 205.963 435.836 202.656L434.356 201.312ZM423.894 210.32C419.819 213.206 415.123 216.288 409.804 219.565L410.852 221.267C416.2 217.973 420.933 214.868 425.05 211.952L423.894 210.32ZM481.45 187.456L480.893 188.286L480.899 188.291L481.45 187.456ZM467.818 170.112L466.881 170.463L467.818 170.112ZM465.386 145.408L464.394 145.282L464.393 145.288L465.386 145.408ZM470.826 126.592L469.925 126.158L469.923 126.163L470.826 126.592ZM481.834 111.168L482.534 111.882L482.534 111.882L481.834 111.168ZM497.642 100.8L498.022 101.725L498.026 101.723L497.642 100.8ZM538.538 101.312L538.077 102.199L538.077 102.199L538.538 101.312ZM551.402 112.704L552.241 112.16L552.241 112.16L551.402 112.704ZM557.482 128.384L556.496 128.553L556.498 128.562L557.482 128.384ZM557.93 145.408L556.938 145.281L556.937 145.286L557.93 145.408ZM552.682 163.52L553.586 163.948L553.587 163.946L552.682 163.52ZM541.866 179.008L541.152 178.308L541.152 178.308L541.866 179.008ZM526.058 189.824L526.458 190.74L526.458 190.74L526.058 189.824ZM521.066 176.512L521.59 177.364L521.596 177.36L521.066 176.512ZM532.458 164.48L531.604 163.959L531.601 163.964L532.458 164.48ZM538.602 145.408L537.609 145.288L537.609 145.289L538.602 145.408ZM537.578 127.424L536.613 127.686L536.616 127.696L537.578 127.424ZM529.962 114.816L530.608 114.053L530.608 114.053L529.962 114.816ZM500.65 115.072L501.244 115.877L501.244 115.877L500.65 115.072ZM490.026 127.936L489.133 127.486L489.133 127.486L490.026 127.936ZM484.842 145.408L485.834 145.533L485.835 145.529L484.842 145.408ZM484.97 158.336L483.981 158.486L483.982 158.487L484.97 158.336ZM488.682 169.664L487.804 170.142L487.806 170.147L488.682 169.664ZM496.106 177.664L495.565 178.505L495.573 178.51L496.106 177.664ZM505.834 192.792C496.118 192.792 488.197 190.711 482.001 186.621L480.899 188.291C487.503 192.649 495.838 194.792 505.834 194.792V192.792ZM482.007 186.626C475.827 182.478 471.413 176.866 468.755 169.761L466.881 170.463C469.684 177.95 474.359 183.901 480.893 188.286L482.007 186.626ZM468.755 169.761C466.09 162.641 465.285 154.572 466.379 145.528L464.393 145.288C463.268 154.591 464.085 162.991 466.881 170.463L468.755 169.761ZM466.378 145.534C467.219 138.936 469.003 132.766 471.729 127.021L469.923 126.163C467.102 132.108 465.26 138.483 464.394 145.282L466.378 145.534ZM471.727 127.026C474.494 121.282 478.096 116.236 482.534 111.882L481.134 110.454C476.526 114.974 472.79 120.211 469.925 126.158L471.727 127.026ZM482.534 111.882C486.962 107.537 492.122 104.152 498.022 101.725L497.262 99.8752C491.13 102.398 485.751 105.924 481.134 110.454L482.534 111.882ZM498.026 101.723C503.949 99.2623 510.515 98.024 517.738 98.024V96.024C510.283 96.024 503.452 97.303 497.258 99.8765L498.026 101.723ZM517.738 98.024C525.994 98.024 532.756 99.4359 538.077 102.199L538.999 100.425C533.312 97.4707 526.208 96.024 517.738 96.024V98.024ZM538.077 102.199C543.443 104.986 547.594 108.671 550.563 113.248L552.241 112.16C549.066 107.265 544.641 103.355 538.999 100.425L538.077 102.199ZM550.563 113.248C553.559 117.867 555.537 122.966 556.496 128.553L558.468 128.215C557.464 122.368 555.389 117.013 552.241 112.16L550.563 113.248ZM556.498 128.562C557.504 134.137 557.65 139.709 556.938 145.281L558.922 145.535C559.66 139.758 559.508 133.981 558.466 128.206L556.498 128.562ZM556.937 145.286C556.183 151.451 554.463 157.386 551.777 163.094L553.587 163.946C556.362 158.048 558.141 151.909 558.923 145.53L556.937 145.286ZM551.778 163.092C549.096 168.751 545.555 173.821 541.152 178.308L542.58 179.708C547.137 175.064 550.807 169.809 553.586 163.948L551.778 163.092ZM541.152 178.308C536.765 182.778 531.603 186.312 525.658 188.908L526.458 190.74C532.63 188.046 538.007 184.368 542.58 179.708L541.152 178.308ZM525.658 188.908C519.74 191.491 513.137 192.792 505.834 192.792V194.792C513.379 194.792 520.259 193.447 526.458 190.74L525.658 188.908ZM507.37 181.608C512.268 181.608 517.013 180.18 521.59 177.364L520.542 175.66C516.244 178.305 511.858 179.608 507.37 179.608V181.608ZM521.596 177.36C526.188 174.49 530.09 170.356 533.315 164.996L531.601 163.964C528.511 169.1 524.819 172.987 520.536 175.664L521.596 177.36ZM533.312 165.001C536.601 159.606 538.686 153.105 539.595 145.527L537.609 145.289C536.726 152.644 534.715 158.858 531.604 163.959L533.312 165.001ZM539.595 145.528C540.418 138.727 540.077 132.596 538.54 127.152L536.616 127.696C538.066 132.834 538.408 138.691 537.609 145.288L539.595 145.528ZM538.543 127.162C537.048 121.666 534.413 117.276 530.608 114.053L529.316 115.579C532.764 118.5 535.207 122.516 536.613 127.686L538.543 127.162ZM530.608 114.053C526.769 110.801 521.897 109.208 516.074 109.208V111.208C521.515 111.208 525.902 112.687 529.316 115.579L530.608 114.053ZM516.074 109.208C509.99 109.208 504.637 110.888 500.056 114.267L501.244 115.877C505.453 112.771 510.382 111.208 516.074 111.208V109.208ZM500.056 114.267C495.524 117.612 491.885 122.026 489.133 127.486L490.919 128.386C493.543 123.179 496.987 119.018 501.244 115.877L500.056 114.267ZM489.133 127.486C486.39 132.929 484.63 138.865 483.849 145.287L485.835 145.529C486.59 139.321 488.286 133.61 490.919 128.386L489.133 127.486ZM483.85 145.283C483.284 149.765 483.327 154.167 483.981 158.486L485.959 158.186C485.333 154.057 485.291 149.84 485.834 145.533L483.85 145.283ZM483.982 158.487C484.637 162.771 485.908 166.66 487.804 170.142L489.56 169.186C487.786 165.927 486.583 162.263 485.958 158.185L483.982 158.487ZM487.806 170.147C489.719 173.616 492.307 176.407 495.565 178.505L496.647 176.823C493.676 174.91 491.315 172.368 489.558 169.181L487.806 170.147ZM495.573 178.51C498.876 180.591 502.824 181.608 507.37 181.608V179.608C503.127 179.608 499.566 178.662 496.639 176.818L495.573 178.51ZM565.874 192L564.881 191.878L564.744 193H565.874V192ZM577.138 100.096L576.977 99.1091L576.237 99.2302L576.145 99.9743L577.138 100.096ZM589.042 98.304L588.912 97.3125L588.912 97.3125L589.042 98.304ZM597.938 97.408L598.001 98.406L598.001 98.406L597.938 97.408ZM624.498 100.544L624.102 101.462L624.111 101.466L624.498 100.544ZM636.594 110.272L635.756 110.817L635.759 110.823L636.594 110.272ZM639.73 125.696L640.722 125.822L640.723 125.816L639.73 125.696ZM634.61 138.944L633.802 138.354L633.802 138.354L634.61 138.944ZM624.37 148.096L624.714 149.035L624.792 149.006L624.864 148.965L624.37 148.096ZM620.53 149.504L620.186 148.565L618.066 149.342L620.066 150.39L620.53 149.504ZM623.218 150.912L623.912 150.192L623.809 150.093L623.682 150.026L623.218 150.912ZM628.274 158.784L627.331 159.116L627.334 159.124L627.337 159.132L628.274 158.784ZM630.77 168.64L629.782 168.793L629.782 168.793L630.77 168.64ZM632.562 179.968L631.575 180.127L631.575 180.129L632.562 179.968ZM635.634 192V193H637.035L636.58 191.675L635.634 192ZM616.818 192L615.871 192.32L616.1 193H616.818V192ZM614.386 181.568L613.396 181.706L613.396 181.706L614.386 181.568ZM612.85 170.752L611.86 170.895L611.86 170.895L612.85 170.752ZM610.482 160.96L609.536 161.284L609.54 161.296L610.482 160.96ZM605.682 153.728L606.327 152.963L606.016 152.702L605.611 152.731L605.682 153.728ZM601.906 153.856L601.873 154.855L601.889 154.856H601.906V153.856ZM597.938 153.536L597.784 154.524L597.799 154.526L597.814 154.528L597.938 153.536ZM593.778 152.576L592.893 152.11L592.329 153.182L593.488 153.533L593.778 152.576ZM601.01 142.976L601.64 143.753L601.64 143.753L601.01 142.976ZM606.322 140.8L606.409 141.796L606.413 141.796L606.322 140.8ZM612.978 138.496L613.513 139.341L613.519 139.337L613.525 139.333L612.978 138.496ZM618.226 133.184L617.389 132.637L617.386 132.641L618.226 133.184ZM620.914 125.696L619.922 125.567L619.921 125.574L620.914 125.696ZM619.57 117.824L618.692 118.303L618.696 118.31L619.57 117.824ZM613.81 112.32L613.345 113.205L613.351 113.208L613.81 112.32ZM599.666 110.528L599.766 111.523L599.766 111.523L599.666 110.528ZM594.162 111.104L594.055 110.11L593.265 110.194L593.169 110.983L594.162 111.104ZM584.306 192V193H585.192L585.299 192.121L584.306 192ZM566.867 192.122L578.131 100.218L576.145 99.9743L564.881 191.878L566.867 192.122ZM577.299 101.083C581.987 100.316 585.944 99.7203 589.172 99.2954L588.912 97.3125C585.655 97.741 581.676 98.3401 576.977 99.1091L577.299 101.083ZM589.172 99.2954C592.397 98.8711 595.34 98.575 598.001 98.406L597.875 96.41C595.16 96.5824 592.172 96.8835 588.912 97.3125L589.172 99.2954ZM598.001 98.406C600.666 98.2368 603.524 98.152 606.578 98.152V96.152C603.488 96.152 600.586 96.2378 597.875 96.41L598.001 98.406ZM606.578 98.152C613.164 98.152 618.999 99.2633 624.102 101.462L624.894 99.6256C619.501 97.302 613.39 96.152 606.578 96.152V98.152ZM624.111 101.466C629.241 103.618 633.105 106.739 635.756 110.817L637.432 109.727C634.536 105.271 630.336 101.908 624.885 99.6218L624.111 101.466ZM635.759 110.823C638.422 114.856 639.44 119.75 638.737 125.576L640.723 125.816C641.471 119.61 640.398 114.221 637.429 109.721L635.759 110.823ZM638.738 125.57C638.118 130.451 636.468 134.704 633.802 138.354L635.418 139.534C638.298 135.589 640.062 131.011 640.722 125.822L638.738 125.57ZM633.802 138.354C631.112 142.038 627.805 144.993 623.876 147.227L624.864 148.965C629.042 146.591 632.561 143.444 635.418 139.534L633.802 138.354ZM624.026 147.157L620.186 148.565L620.874 150.443L624.714 149.035L624.026 147.157ZM620.066 150.39L622.754 151.798L623.682 150.026L620.994 148.618L620.066 150.39ZM622.524 151.632C624.716 153.742 626.316 156.233 627.331 159.116L629.217 158.452C628.099 155.276 626.328 152.519 623.912 150.192L622.524 151.632ZM627.337 159.132C628.419 162.048 629.236 165.267 629.782 168.793L631.758 168.487C631.195 164.845 630.347 161.494 629.211 158.436L627.337 159.132ZM629.782 168.793C630.337 172.379 630.934 176.157 631.575 180.127L633.549 179.809C632.91 175.843 632.313 172.069 631.758 168.487L629.782 168.793ZM631.575 180.129C632.225 184.115 633.264 188.18 634.688 192.325L636.58 191.675C635.188 187.628 634.179 183.672 633.549 179.807L631.575 180.129ZM635.634 191H616.818V193H635.634V191ZM617.765 191.68C616.677 188.458 615.88 185.042 615.376 181.43L613.396 181.706C613.916 185.433 614.74 188.972 615.871 192.32L617.765 191.68ZM615.376 181.43C614.864 177.759 614.352 174.152 613.84 170.609L611.86 170.895C612.372 174.435 612.884 178.038 613.396 181.706L615.376 181.43ZM613.84 170.609C613.319 167.01 612.515 163.68 611.424 160.624L609.54 161.296C610.582 164.213 611.357 167.411 611.86 170.895L613.84 170.609ZM611.428 160.636C610.352 157.497 608.656 154.927 606.327 152.963L605.037 154.493C607.06 156.198 608.564 158.45 609.536 161.284L611.428 160.636ZM605.611 152.731C604.442 152.814 603.207 152.856 601.906 152.856V154.856C603.25 154.856 604.533 154.813 605.753 154.725L605.611 152.731ZM601.939 152.857C600.692 152.815 599.399 152.711 598.062 152.544L597.814 154.528C599.207 154.702 600.56 154.812 601.873 154.855L601.939 152.857ZM598.092 152.548C596.776 152.342 595.434 152.033 594.068 151.619L593.488 153.533C594.938 153.972 596.37 154.303 597.784 154.524L598.092 152.548ZM594.663 153.042C595.496 151.459 596.499 149.806 597.676 148.084L596.024 146.956C594.811 148.732 593.767 150.45 592.893 152.11L594.663 153.042ZM597.676 148.084C598.818 146.411 600.14 144.969 601.64 143.753L600.38 142.199C598.723 143.543 597.271 145.13 596.024 146.956L597.676 148.084ZM601.64 143.753C603.069 142.594 604.651 141.949 606.409 141.796L606.235 139.804C604.067 139.992 602.109 140.798 600.38 142.199L601.64 143.753ZM606.413 141.796C608.925 141.567 611.295 140.744 613.513 139.341L612.443 137.651C610.48 138.893 608.412 139.606 606.231 139.804L606.413 141.796ZM613.525 139.333C615.737 137.889 617.585 136.016 619.066 133.727L617.386 132.641C616.051 134.704 614.4 136.373 612.431 137.659L613.525 139.333ZM619.063 133.731C620.602 131.378 621.548 128.735 621.907 125.818L619.921 125.574C619.598 128.204 618.752 130.553 617.389 132.637L619.063 133.731ZM621.906 125.825C622.314 122.697 621.841 119.853 620.444 117.338L618.696 118.31C619.859 120.403 620.282 122.807 619.922 125.567L621.906 125.825ZM620.448 117.345C619.065 114.809 616.992 112.838 614.269 111.432L613.351 113.208C615.748 114.447 617.515 116.145 618.692 118.303L620.448 117.345ZM614.275 111.435C611.592 110.025 608.504 109.336 605.042 109.336V111.336C608.236 111.336 610.994 111.97 613.345 113.205L614.275 111.435ZM605.042 109.336C602.726 109.336 600.896 109.4 599.566 109.533L599.766 111.523C600.996 111.4 602.75 111.336 605.042 111.336V109.336ZM599.566 109.533C598.283 109.661 596.446 109.854 594.055 110.11L594.269 112.098C596.657 111.842 598.489 111.651 599.766 111.523L599.566 109.533ZM593.169 110.983L583.313 191.879L585.299 192.121L595.155 111.225L593.169 110.983ZM584.306 191H565.874V193H584.306V191ZM710.462 192L709.53 192.362L709.777 193H710.462V192ZM694.462 150.784L693.476 150.948L693.493 151.05L693.53 151.146L694.462 150.784ZM693.95 147.712L694.936 147.548L694.527 145.091L693.124 147.149L693.95 147.712ZM692.03 150.528L692.773 151.197L692.818 151.147L692.856 151.091L692.03 150.528ZM682.686 160.896L681.695 161.03L681.983 163.169L683.429 161.565L682.686 160.896ZM683.198 149.248L682.223 149.028L682.22 149.038L683.198 149.248ZM687.294 137.92L688.184 138.376L688.186 138.371L687.294 137.92ZM693.566 128.384L694.324 129.036L694.332 129.027L693.566 128.384ZM718.27 98.944V97.944H717.804L717.504 98.3012L718.27 98.944ZM738.366 98.944L739.112 99.6103L740.6 97.944H738.366V98.944ZM705.086 136.192L704.34 135.526L703.899 136.02L704.182 136.619L705.086 136.192ZM731.454 192V193H733.032L732.358 191.573L731.454 192ZM653.374 192L652.381 191.878L652.244 193H653.374V192ZM664.766 98.944V97.944H663.881L663.773 98.8225L664.766 98.944ZM683.07 98.944L684.063 99.0655L684.2 97.944H683.07V98.944ZM671.678 192V193H672.563L672.671 192.122L671.678 192ZM711.394 191.638L695.394 150.422L693.53 151.146L709.53 192.362L711.394 191.638ZM695.448 150.62L694.936 147.548L692.964 147.876L693.476 150.948L695.448 150.62ZM693.124 147.149L691.204 149.965L692.856 151.091L694.776 148.275L693.124 147.149ZM691.287 149.859L681.943 160.227L683.429 161.565L692.773 151.197L691.287 149.859ZM683.677 160.762C683.181 157.086 683.345 153.32 684.176 149.458L682.22 149.038C681.344 153.112 681.167 157.111 681.695 161.03L683.677 160.762ZM684.173 149.468C685.051 145.581 686.388 141.884 688.184 138.376L686.404 137.464C684.531 141.124 683.137 144.979 682.223 149.028L684.173 149.468ZM688.186 138.371C689.989 134.808 692.037 131.698 694.324 129.036L692.808 127.732C690.402 130.531 688.268 133.779 686.402 137.469L688.186 138.371ZM694.332 129.027L719.036 99.5868L717.504 98.3012L692.8 127.741L694.332 129.027ZM718.27 99.944H738.366V97.944H718.27V99.944ZM737.62 98.2777L704.34 135.526L705.832 136.858L739.112 99.6103L737.62 98.2777ZM704.182 136.619L730.55 192.427L732.358 191.573L705.99 135.765L704.182 136.619ZM731.454 191H710.462V193H731.454V191ZM654.367 192.122L665.759 99.0655L663.773 98.8225L652.381 191.878L654.367 192.122ZM664.766 99.944H683.07V97.944H664.766V99.944ZM682.077 98.8225L670.685 191.878L672.671 192.122L684.063 99.0655L682.077 98.8225ZM671.678 191H653.374V193H671.678V191Z" fill="url(#paint0_linear_205_48)"/>
<path d="M102.96 192L112.688 112.128H88.368L90.032 98.944H156.848L155.184 112.128H130.864L121.136 192H102.96ZM156.999 192L168.391 98.944H224.199L222.535 112.128H185.031L176.839 178.816H216.391L214.855 192H156.999ZM185.287 149.632C186.098 147.755 187.164 145.813 188.487 143.808C189.81 141.803 191.388 140.117 193.223 138.752C195.1 137.387 197.276 136.704 199.751 136.704H215.239L213.575 149.632H185.287ZM277.049 193.536C266.51 193.536 257.806 191.403 250.937 187.136C244.11 182.869 239.204 177.109 236.217 169.856C233.23 162.56 232.292 154.411 233.401 145.408C234.254 138.752 236.153 132.523 239.097 126.72C242.084 120.875 245.988 115.755 250.809 111.36C255.63 106.965 261.241 103.531 267.641 101.056C274.041 98.5387 281.102 97.28 288.825 97.28C292.409 97.28 296.014 97.6213 299.641 98.304C303.268 98.9867 307.001 100.096 310.841 101.632L304.825 113.408C301.198 112.299 298.105 111.531 295.545 111.104C292.985 110.677 290.233 110.464 287.289 110.464C282.212 110.464 277.646 111.445 273.593 113.408C269.582 115.371 266.126 118.016 263.225 121.344C260.366 124.629 258.062 128.363 256.313 132.544C254.564 136.683 253.412 140.971 252.857 145.408C252.302 149.803 252.388 154.091 253.113 158.272C253.838 162.453 255.246 166.208 257.337 169.536C259.428 172.821 262.244 175.445 265.785 177.408C269.326 179.371 273.636 180.352 278.713 180.352C281.657 180.352 284.601 179.989 287.545 179.264C290.532 178.539 293.689 177.451 297.017 176L300.345 187.648C296.334 189.611 292.345 191.083 288.377 192.064C284.409 193.045 280.633 193.536 277.049 193.536ZM367.873 192L372.993 149.76H337.537C338.305 147.883 339.35 145.92 340.673 143.872C341.996 141.824 343.596 140.096 345.473 138.688C347.35 137.28 349.526 136.576 352.001 136.576H374.657L379.265 98.944H397.313L385.921 192H367.873ZM309.249 192L320.641 98.944H338.945L327.553 192H309.249Z" fill="url(#paint1_linear_205_48)"/>
<path d="M0.954557 151.145C1.47129 154.58 3.29619 157.605 6.09568 159.672L45.2428 188.544C47.9245 190.526 51.1099 191.575 54.4458 191.575C60.1233 191.575 65.3494 188.472 68.09 183.472C71.7529 176.771 69.6402 168.127 63.1778 163.368L40.2325 146.451C39.5195 145.917 39.3625 144.906 39.8923 144.196L57.2322 120.838C59.8224 117.338 60.8231 112.885 59.9597 108.615C59.1029 104.345 56.4407 100.617 52.6667 98.3742C46.0604 94.4498 36.6808 96.6271 31.9125 103.035L3.37468 141.484C1.30122 144.274 0.444369 147.703 0.954557 151.145ZM8.63354 145.363L37.1844 106.901C39.0486 104.391 42.0835 102.827 45.1054 102.827C46.6294 102.827 48.0488 103.211 49.3308 103.967C51.5547 105.291 53.0591 107.39 53.5628 109.893C54.0533 112.357 53.4777 114.932 51.9799 116.953L34.6335 140.31C31.9648 143.909 32.7301 149.007 36.3407 151.679L59.2926 168.602C63.1451 171.445 64.4598 176.49 62.3537 180.343C59.8027 184.991 53.3731 186.425 49.1411 183.296L9.99404 154.424C8.59429 153.394 7.67857 151.881 7.42348 150.174C7.16838 148.466 7.59354 146.758 8.63354 145.363Z" fill="url(#paint2_linear_205_48)"/>
<path d="M43.6827 6.1881C39.4178 6.1881 37.7183 2.64417 37.6482 2.49378L38.3387 2.17114C38.4012 2.30426 39.9137 5.42597 43.6827 5.42597C47.465 5.42597 48.9694 2.24126 48.9847 2.20925L49.6772 2.52681C49.6086 2.67568 47.9487 6.1881 43.6827 6.1881Z" fill="#FF0033" fill-opacity="0.5"/>
<path d="M43.6924 17.3838C38.8991 17.3838 35 13.4842 35 8.69189C35 3.89959 38.8996 0 43.6924 0C48.4852 0 52.3843 3.89959 52.3843 8.69189C52.3843 13.4842 48.4852 17.3838 43.6924 17.3838ZM43.6924 0.761627C39.3198 0.761627 35.7621 4.31876 35.7621 8.69138C35.7621 13.064 39.3198 16.6211 43.6924 16.6211C48.065 16.6211 51.6222 13.064 51.6222 8.69138C51.6222 4.31876 48.0655 0.761627 43.6924 0.761627Z" fill="#FF0033" fill-opacity="0.5"/>
<path d="M44.0735 0.317627H43.3113V16.6375H44.0735V0.317627Z" fill="#FF0033" fill-opacity="0.5"/>
<path d="M51.9956 8.3103H35.5503V9.07244H51.9956V8.3103Z" fill="#FF0033" fill-opacity="0.5"/>
<path d="M38.3387 14.7035L37.6482 14.3808C37.7183 14.2299 39.4178 10.6865 43.6827 10.6865C47.9487 10.6865 49.6086 14.1984 49.6772 14.3478L48.9852 14.6664C48.9242 14.5348 47.4502 11.4487 43.6827 11.4487C39.9137 11.4492 38.4012 14.5709 38.3387 14.7035Z" fill="#FF0033" fill-opacity="0.5"/>
<path d="M43.2595 17.1607C43.0979 17.0128 39.3091 13.4897 39.3091 8.69135C39.3091 3.88584 43.1843 0.49332 43.3494 0.351562L43.8469 0.929261C43.8088 0.96127 40.0707 4.24201 40.0707 8.69135C40.0707 13.1483 43.7366 16.5642 43.7737 16.5982L43.2595 17.1607Z" fill="#FF0033" fill-opacity="0.5"/>
<path d="M44.1258 17.1609L43.6111 16.599C43.6482 16.5649 47.3141 13.149 47.3141 8.69208C47.3141 4.24223 43.5766 0.962003 43.5379 0.929993L44.0354 0.352295C44.2005 0.494052 48.0757 3.88657 48.0757 8.69208C48.0762 13.4905 44.2874 17.0131 44.1258 17.1609Z" fill="#FF0033" fill-opacity="0.5"/>
<path d="M34.8746 35.126C34.5516 35.1508 34.1037 35.1742 33.5639 35.1742L34.8746 35.126ZM34.8746 35.126V35.1284V35.1395V35.1506V35.1619V35.1733V35.1847V35.1963V35.208V35.2198V35.2317V35.2437V35.2558V35.268V35.2803V35.2927V35.3052V35.3178V35.3305V35.3433V35.3562V35.3693V35.3824V35.3956V35.4089V35.4224V35.4359V35.4495V35.4633V35.4771V35.491V35.5051V35.5192V35.5334V35.5478V35.5622V35.5767V35.5914V35.6061V35.621V35.6359V35.6509V35.6661V35.6813V35.6967V35.7121V35.7276V35.7433V35.759V35.7748V35.7907V35.8068V35.8229V35.8391V35.8554V35.8719V35.8884V35.905V35.9217V35.9385V35.9554V35.9724V35.9895V36.0067V36.024V36.0414V36.0589V36.0765V36.0942V36.1119V36.1298V36.1478V36.1658V36.184V36.2023V36.2206V36.2391V36.2576V36.2762V36.295V36.3138V36.3327V36.3517V36.3708V36.39V36.4093V36.4287V36.4482V36.4678V36.4874V36.5072V36.527V36.547V36.567V36.5872V36.6074V36.6277V36.6481V36.6686V36.6892V36.7099V36.7307V36.7516V36.7725V36.7936V36.8147V36.836V36.8573V36.8787V36.9002V36.9218V36.9435V36.9653V36.9872V37.0091V37.0312V37.0533V37.0756V37.0979V37.1203V37.1428V37.1654V37.1881V37.2108V37.2337V37.2566V37.2797V37.3028V37.326V37.3493V37.3727V37.3962V37.4197V37.4434V37.4671V37.491V37.5149V37.5389V37.563V37.5871V37.6114V37.6357V37.6602V37.6847V37.7093V37.734V37.7588V37.7837V37.8086V37.8336V37.8588V37.884V37.9093V37.9346V37.9601V37.9857V38.0113V38.037V38.0628V38.0887V38.1147V38.1407V38.1669V38.1931V38.2194V38.2458V38.2722V38.2988V38.3254V38.3522V38.379V38.4059V38.4328V38.4599V38.487V38.5142V38.5415V38.5689V38.5964V38.6239V38.6516V38.6793V38.7071V38.7349V38.7629V38.7909V38.819V38.8472V38.8755V38.9039V38.9323V38.9608V38.9894V39.0181V39.0468V39.0757V39.1046V39.1336V39.1627V39.1918V39.2211V39.2504V39.2798V39.3092V39.3388V39.3684V39.3981V39.4279V39.4577V39.4877V39.5177V39.5478V39.578V39.6082V39.6385V39.6689V39.6994V39.73V39.7606V39.7913V39.8221V39.853V39.8839V39.9149V39.946V39.9772V40.0084V40.0397V40.0711V40.1026V40.1341V40.1658V40.1974V40.2292V40.2611V40.293V40.325V40.357V40.3892V40.4214V40.4537V40.486V40.5185V40.551V40.5836V40.6162V40.6489V40.6817V40.7146V40.7476V40.7806V40.8137V40.8468V40.8801V40.9134V40.9467V40.9802V41.0137V41.0473V41.081V41.1147V41.1485V41.1824V41.2164V41.2504V41.2845V41.3186V41.3529V41.3872V41.4215V41.456V41.4905V41.5251V41.5597V41.5944V41.6292V41.6641V41.699V41.734V41.7691V41.8042V41.8394V41.8747V41.91V41.9454V41.9809V42.0164V42.0521V42.0877V42.1235V42.1593V42.1952V42.2311V42.2671V42.3032V42.3394V42.3756V42.4119V42.4482V42.4846V42.5211V42.5576V42.5943V42.6309V42.6677V42.7045V42.7414V42.7783V42.8153V42.8524V42.8895V42.9267V42.964V43.0013V43.0387V43.0761V43.1136V43.1512V43.1889V43.2266V43.2644V43.3022V43.3401V43.3781V43.4161V43.4542V43.4923V43.5305V43.5688V43.6071V43.6455V43.684V43.7225V43.7611V43.7998V43.8385V43.8772V43.9161V43.955V43.9939V44.0329V44.072V44.1111V44.1503V44.1896V44.2289V44.2683V44.3077V44.3472V44.3868V44.4264V44.4661V44.5058V44.5456V44.5855V44.6254V44.6653V44.7054V44.7455V44.7856V44.8258V44.8661V44.9064V44.9468V44.9872V45.0277V45.0682V45.1089V45.1495V45.1902V45.231V45.2719V45.3128V45.3537V45.3947V45.4358V45.4769V45.5181V45.5593V45.6006V45.6419V45.6833V45.7248V45.7663V45.8078V45.8495V45.8911V45.9329V45.9747V46.0165V46.0584V46.1003V46.1423V46.1844V46.2265V46.2686V46.3109V46.3531V46.3955V46.4378V46.4803V46.5227V46.5653V46.6079V46.6505V46.6932V46.7359V46.7787V46.8216V46.8645V46.9074V46.9504V46.9935V47.0366V47.0798C34.8746 50.5068 32.1387 53.5019 29.2297 55.6976C27.7941 56.7812 26.3555 57.6405 25.2743 58.2294C24.7343 58.5235 24.2849 58.7493 23.9715 58.9012C23.8582 58.956 23.7628 59.0012 23.6873 59.0365C23.6118 59.0012 23.5164 58.956 23.4031 58.9012C23.0897 58.7493 22.6403 58.5235 22.1003 58.2294C21.0191 57.6406 19.5805 56.7814 18.1449 55.6978C15.2359 53.5022 12.5 50.5072 12.5 47.0802V47.037V46.9939V46.9509V46.9079V46.8649V46.822V46.7792V46.7364V46.6936V46.6509V46.6083V46.5657V46.5232V46.4807V46.4383V46.3959V46.3536V46.3113V46.2691V46.2269V46.1848V46.1428V46.1008V46.0588V46.0169V45.9751V45.9333V45.8916V45.8499V45.8083V45.7667V45.7252V45.6838V45.6424V45.601V45.5597V45.5185V45.4773V45.4362V45.3952V45.3542V45.3132V45.2723V45.2315V45.1907V45.15V45.1093V45.0687V45.0281V44.9876V44.9472V44.9068V44.8665V44.8263V44.786V44.7459V44.7058V44.6658V44.6258V44.5859V44.546V44.5063V44.4665V44.4268V44.3872V44.3477V44.3082V44.2687V44.2294V44.19V44.1508V44.1116V44.0725V44.0334V43.9944V43.9554V43.9165V43.8777V43.8389V43.8002V43.7616V43.723V43.6845V43.646V43.6076V43.5693V43.531V43.4928V43.4546V43.4165V43.3785V43.3405V43.3026V43.2648V43.227V43.1893V43.1517V43.1141V43.0766V43.0391V43.0017V42.9644V42.9271V42.8899V42.8528V42.8157V42.7787V42.7418V42.7049V42.6681V42.6314V42.5947V42.5581V42.5215V42.4851V42.4487V42.4123V42.376V42.3398V42.3037V42.2676V42.2316V42.1956V42.1597V42.1239V42.0882V42.0525V42.0169V41.9813V41.9459V41.9105V41.8751V41.8399V41.8047V41.7695V41.7345V41.6995V41.6645V41.6297V41.5949V41.5602V41.5255V41.4909V41.4564V41.422V41.3876V41.3533V41.3191V41.2849V41.2508V41.2168V41.1829V41.149V41.1152V41.0814V41.0478V41.0142V40.9806V40.9472V40.9138V40.8805V40.8473V40.8141V40.781V40.748V40.7151V40.6822V40.6494V40.6167V40.584V40.5514V40.5189V40.4865V40.4541V40.4218V40.3896V40.3575V40.3254V40.2934V40.2615V40.2297V40.1979V40.1662V40.1346V40.103V40.0716V40.0402V40.0089V39.9776V39.9465V39.9154V39.8844V39.8534V39.8226V39.7918V39.7611V39.7304V39.6999V39.6694V39.639V39.6087V39.5784V39.5482V39.5181V39.4881V39.4582V39.4283V39.3986V39.3688V39.3392V39.3097V39.2802V39.2508V39.2215V39.1923V39.1631V39.134V39.105V39.0761V39.0473V39.0185V38.9899V38.9613V38.9327V38.9043V38.876V38.8477V38.8195V38.7914V38.7633V38.7354V38.7075V38.6797V38.652V38.6244V38.5968V38.5694V38.542V38.5147V38.4875V38.4603V38.4333V38.4063V38.3794V38.3526V38.3259V38.2993V38.2727V38.2462V38.2198V38.1935V38.1673V38.1412V38.1151V38.0891V38.0633V38.0375V38.0117V37.9861V37.9606V37.9351V37.9097V37.8844V37.8592V37.8341V37.809V37.7841V37.7592V37.7345V37.7098V37.6852V37.6606V37.6362V37.6118V37.5876V37.5634V37.5393V37.5153V37.4914V37.4676V37.4438V37.4202V37.3966V37.3731V37.3498V37.3265V37.3032V37.2801V37.2571V37.2341V37.2113V37.1885V37.1658V37.1433V37.1207V37.0983V37.076V37.0538V37.0316V37.0096V36.9876V36.9658V36.944V36.9223V36.9007V36.8792V36.8577V36.8364V36.8152V36.794V36.773V36.752V36.7311V36.7104V36.6897V36.6691V36.6486V36.6282V36.6078V36.5876V36.5675V36.5474V36.5275V36.5076V36.4879V36.4682V36.4486V36.4291V36.4098V36.3905V36.3713V36.3522V36.3331V36.3142V36.2954V36.2767V36.258V36.2395V36.2211V36.2027V36.1845V36.1663V36.1482V36.1303V36.1124V36.0946V36.0769V36.0594V36.0419V36.0245V36.0072V35.99V35.9729V35.9559V35.939V35.9222V35.9054V35.8888V35.8723V35.8559V35.8396V35.8233V35.8072V35.7912V35.7753V35.7594V35.7437V35.7281V35.7125V35.6971V35.6818V35.6665V35.6514V35.6364V35.6214V35.6066V35.5918V35.5772V35.5627V35.5482V35.5339V35.5196V35.5055V35.4915V35.4775V35.4637V35.45V35.4363V35.4228V35.4094V35.3961V35.3828V35.3697V35.3567V35.3438V35.331V35.3182V35.3056V35.2931V35.2807V35.2684V35.2562V35.2441V35.2321V35.2202V35.2085V35.1968V35.1852V35.1737V35.1624V35.1511V35.1399V35.1289V35.1265C12.823 35.1512 13.2709 35.1747 13.8108 35.1747C16.2022 35.1747 20.538 34.7151 23.6874 31.7075C26.8381 34.715 31.1721 35.1746 33.5638 35.1742L34.8746 35.126Z" stroke="#FF0033" stroke-opacity="0.8"/>
<path d="M67 68.125L69.3327 70.2244C71.4536 72.1333 72.5142 73.0878 72.5142 74.3125C72.5142 75.5372 71.4536 76.4917 69.3327 78.4006L67 80.5" stroke="#FF0033" stroke-width="1.5" stroke-linecap="round"/>
<path d="M64.2319 59.875L61.4909 70.1875L58.75 80.5" stroke="#FF0033" stroke-width="1.5" stroke-linecap="round"/>
<path d="M56.0001 59.6406L53.6674 61.74C51.5464 63.6489 50.4859 64.6034 50.4859 65.8281C50.4859 67.0529 51.5464 68.0074 53.6674 69.9163L56.0001 72.0156" stroke="#FF0033" stroke-width="1.5" stroke-linecap="round"/>
<path d="M761.921 166.976C755.936 172.941 755.328 182.374 760.548 188.449C763.504 191.891 767.795 193.867 772.328 193.867C776.475 193.867 780.367 192.263 783.284 189.349L817.721 155.027C820.187 152.576 821.548 149.31 821.548 145.835C821.548 142.361 820.187 139.095 817.721 136.644L783.284 102.321C777.063 96.1155 765.918 96.6696 760.312 103.495C755.354 109.544 756.048 118.834 761.882 124.649L781.989 144.701C782.401 145.105 782.46 145.588 782.46 145.835C782.46 146.083 782.401 146.565 781.989 146.976L761.921 166.976ZM786.613 140.086L766.506 120.04C763.02 116.565 762.523 111.109 765.381 107.621C767.102 105.522 769.626 104.323 772.328 104.323C774.715 104.323 776.965 105.248 778.659 106.937L813.097 141.259C814.327 142.485 815.007 144.114 815.007 145.842C815.007 147.569 814.327 149.199 813.097 150.425L778.659 184.747C775.121 188.273 768.796 188.032 765.519 184.219C762.562 180.77 763.02 175.105 766.546 171.592L786.613 151.591C788.15 150.053 789 148.013 789 145.842C789.007 143.658 788.157 141.618 786.613 140.086Z" fill="url(#paint3_linear_205_48)"/>
<defs>
<linearGradient id="paint0_linear_205_48" x1="574.54" y1="93.6656" x2="574.54" y2="305.278" gradientUnits="userSpaceOnUse">
<stop stop-color="#FF0033"/>
<stop offset="1" stop-color="#FF0033" stop-opacity="0.5"/>
</linearGradient>
<linearGradient id="paint1_linear_205_48" x1="242.5" y1="60" x2="242.5" y2="233" gradientUnits="userSpaceOnUse">
<stop stop-color="#2CA9BC"/>
<stop offset="1" stop-color="#2CA9BC" stop-opacity="0.5"/>
</linearGradient>
<linearGradient id="paint2_linear_205_48" x1="35.3457" y1="96.4138" x2="35.3457" y2="191.575" gradientUnits="userSpaceOnUse">
<stop stop-color="#FF0033"/>
<stop offset="1" stop-color="#99001F"/>
</linearGradient>
<linearGradient id="paint3_linear_205_48" x1="789.274" y1="98" x2="789.274" y2="193.867" gradientUnits="userSpaceOnUse">
<stop stop-color="#FF0033"/>
<stop offset="1" stop-color="#99001F"/>
</linearGradient>
</defs>
</svg>
